<?xml version="1.0" encoding="UTF-8"?>
<svg xmlns="http://www.w3.org/2000/svg" xmlns:xlink="http://www.w3.org/1999/xlink" viewBox="0 0 480 480" width="480px" height="480px">
<g id="surface3343125">
<rect x="0" y="0" width="480" height="480" style="fill:rgb(9.411765%,12.941177%,21.568628%);fill-opacity:1;stroke:none;"/>
<path style=" stroke:none;fill-rule:nonzero;fill:rgb(50.196081%,87.058824%,91.764706%);fill-opacity:1;" d="M 240 340 C 111 340 10 296 10 240 C 10 184 111 140 240 140 C 369 140 470 184 470 240 C 470 296 369 340 240 340 Z M 240 160 C 114 160 30 201 30 240 C 30 279 114 320 240 320 C 366 320 450 279 450 240 C 450 201 366 160 240 160 Z M 240 160 "/>
<path style=" stroke:none;fill-rule:nonzero;fill:rgb(50.196081%,87.058824%,91.764706%);fill-opacity:1;" d="M 151 446 C 141 446 133 444 125 439 C 76 411 89 302 153 190 C 183 138 220 94 256 66 C 295 36 330 27 354 41 C 379 55 388 90 382 139 C 376 185 356 239 326 291 C 296 343 259 387 223 415 C 197 435 172 446 151 446 Z M 329 54 C 313 54 292 63 269 81 C 235 108 200 150 171 200 C 108 309 102 403 135 422 C 152 432 180 423 211 399 C 245 372 280 330 309 280 C 338 230 357 179 363 136 C 368 96 362 68 345 58 C 340 56 335 54 329 54 Z M 329 54 "/>
<path style=" stroke:none;fill-rule:nonzero;fill:rgb(50.196081%,87.058824%,91.764706%);fill-opacity:1;" d="M 330 446 C 280 446 208 385 154 290 C 89 178 76 69 125 41 C 174 13 262 78 327 190 C 357 242 377 296 383 342 C 390 391 380 425 355 440 C 347 444 339 446 330 446 Z M 135 58 C 102 77 108 171 171 280 C 234 389 312 441 345 422 C 362 412 368 384 363 344 C 357 301 338 250 309 200 C 246 91 168 39 135 58 Z M 135 58 "/>
<path style=" stroke:none;fill-rule:nonzero;fill:rgb(50.196081%,87.058824%,91.764706%);fill-opacity:1;" d="M 280 240 C 280 262.089844 262.089844 280 240 280 C 217.910156 280 200 262.089844 200 240 C 200 217.910156 217.910156 200 240 200 C 262.089844 200 280 217.910156 280 240 Z M 280 240 "/>
</g>
</svg>
