<?xml version="1.0" encoding="UTF-8"?>
<svg xmlns="http://www.w3.org/2000/svg" xmlns:xlink="http://www.w3.org/1999/xlink" viewBox="0 0 480 480" width="480px" height="480px">
<g id="surface3356258">
<rect x="0" y="0" width="480" height="480" style="fill:rgb(9.411765%,12.941177%,21.568628%);fill-opacity:1;stroke:none;"/>
<path style=" stroke:none;fill-rule:nonzero;fill:rgb(0%,47.450981%,41.960785%);fill-opacity:1;" d="M 0.0195312 350.410156 L 19.21875 350.410156 L 19.21875 279.558594 L 45.890625 340.128906 C 49.179688 347.679688 53.679688 350.351562 62.511719 350.351562 C 71.339844 350.351562 75.660156 347.679688 78.949219 340.128906 L 105.621094 281.109375 L 105.621094 350.410156 L 124.820312 350.410156 L 124.820312 277.828125 C 124.820312 270.859375 122.050781 267.480469 116.328125 265.738281 C 102.660156 261.441406 93.480469 265.148438 89.328125 274.460938 L 61.980469 336.058594 L 35.488281 274.460938 C 31.511719 265.160156 22.171875 261.441406 8.488281 265.738281 C 2.769531 267.480469 0 270.851562 0 277.820312 L 0 350.398438 L 0.0195312 350.398438 Z M 0.0195312 350.410156 "/>
<path style=" stroke:none;fill-rule:nonzero;fill:rgb(0%,47.450981%,41.960785%);fill-opacity:1;" d="M 134.410156 292.808594 L 153.609375 292.808594 L 153.609375 333.359375 C 153.460938 335.359375 154.25 340.671875 163.511719 340.808594 C 168.230469 340.890625 191.71875 340.808594 192.011719 340.808594 L 192.011719 292.808594 L 211.210938 292.808594 C 211.289062 292.808594 211.210938 352.488281 211.210938 352.738281 C 211.308594 367.460938 192.929688 369.359375 184.480469 369.609375 L 134.421875 369.609375 L 134.421875 360.011719 C 134.519531 360.011719 182.289062 360.019531 182.429688 360.011719 C 193.308594 358.859375 192.019531 352.871094 192.019531 351.050781 L 192.019531 350.410156 L 161.898438 350.410156 C 145.199219 350.261719 134.550781 342.898438 134.429688 334.511719 C 134.410156 333.730469 134.789062 293.171875 134.410156 292.808594 Z M 134.410156 292.808594 "/>
<path style=" stroke:none;fill-rule:nonzero;fill:rgb(96.078432%,49.803922%,9.019608%);fill-opacity:1;" d="M 220.808594 350.410156 L 268.878906 350.410156 C 275.179688 350.410156 281.300781 349.089844 286.160156 346.808594 C 294.261719 343.089844 297.601562 338.058594 297.601562 331.449219 L 297.601562 317.769531 C 297.601562 303.011719 279.300781 302.410156 268.800781 302.410156 L 249.601562 302.410156 C 242.050781 302.410156 240.898438 297.851562 240 292.808594 L 240 283.210938 C 240.898438 279.371094 242.578125 274.210938 249.230469 273.609375 C 256.960938 273.609375 297.589844 273.609375 297.589844 273.609375 L 297.589844 264.011719 L 251.929688 264.011719 C 244.378906 264.011719 220.789062 264.910156 220.789062 283.210938 L 220.789062 295.078125 C 220.789062 303.480469 228.171875 310.320312 244.191406 312 C 245.988281 312.121094 247.789062 312.238281 249.578125 312.238281 C 249.578125 312.238281 268.238281 311.878906 268.78125 312 C 279.578125 312 278.378906 320.398438 278.378906 321.601562 L 278.378906 331.199219 C 278.378906 332.519531 278.078125 340.800781 268.671875 340.800781 C 267.949219 340.800781 220.78125 340.800781 220.78125 340.800781 L 220.78125 350.410156 Z M 220.808594 350.410156 "/>
<path style=" stroke:none;fill-rule:nonzero;fill:rgb(96.078432%,49.803922%,9.019608%);fill-opacity:1;" d="M 403.199219 330.800781 C 403.199219 342.390625 409.75 348.890625 427.121094 350.191406 C 428.738281 350.300781 430.371094 350.398438 432 350.398438 L 480 350.398438 L 480 340.800781 L 435.648438 340.800781 C 425.738281 340.800781 422.398438 336.640625 422.398438 330.691406 L 422.398438 264 L 403.199219 264 Z M 403.199219 330.800781 "/>
<path style=" stroke:none;fill-rule:nonzero;fill:rgb(96.078432%,49.803922%,9.019608%);fill-opacity:1;" d="M 307.039062 331.210938 L 307.039062 283.210938 C 307.039062 273.011719 312.039062 265.96875 326.199219 264.011719 L 372.640625 264.011719 C 386.800781 265.96875 393.441406 273 393.441406 283.210938 L 393.441406 331.03125 C 393.441406 339.300781 391.289062 343.738281 384.28125 346.621094 L 399.160156 360 L 377.558594 360 L 366.859375 350.398438 L 354.289062 350.398438 L 332.929688 350.519531 C 329.839844 350.519531 326.578125 350.089844 323 349.109375 C 312.261719 346.179688 307.039062 340.539062 307.039062 331.210938 Z M 326.238281 331.210938 C 327.21875 335.878906 330.96875 340.808594 337.640625 340.808594 L 356.28125 340.808594 L 345.601562 331.210938 L 367.351562 331.210938 L 372.539062 336.03125 C 372.539062 336.03125 374.398438 334.511719 374.398438 331.210938 C 374.398438 327.910156 374.238281 283.210938 374.238281 283.210938 C 373.261719 278.871094 368.859375 273.609375 362.359375 273.609375 L 337.648438 273.609375 C 330.160156 273.609375 326.25 279.089844 326.25 284.191406 Z M 326.238281 331.210938 "/>
<path style=" stroke:none;fill-rule:nonzero;fill:rgb(0%,47.450981%,41.960785%);fill-opacity:1;" d="M 461.988281 253.890625 C 451.679688 253.609375 443.808594 254.570312 437.078125 257.398438 C 435.171875 258.210938 432.121094 258.230469 431.800781 260.628906 C 432.851562 261.730469 433.011719 263.378906 433.851562 264.730469 C 435.449219 267.328125 438.171875 270.820312 440.589844 272.640625 C 443.238281 274.640625 445.96875 276.78125 448.800781 278.511719 C 453.839844 281.578125 459.46875 283.339844 464.328125 286.421875 C 467.191406 288.230469 470.03125 290.53125 472.828125 292.570312 C 474.210938 293.589844 475.128906 295.160156 476.929688 295.800781 C 476.929688 295.699219 476.929688 295.609375 476.929688 295.511719 C 475.988281 294.308594 475.738281 292.660156 474.878906 291.398438 C 473.609375 290.128906 472.339844 288.859375 471.070312 287.589844 C 467.351562 282.648438 462.609375 278.300781 457.589844 274.699219 C 453.578125 271.820312 444.609375 267.929688 442.929688 263.269531 C 442.828125 263.171875 442.738281 263.078125 442.628906 262.96875 C 445.46875 262.648438 448.800781 261.621094 451.421875 260.921875 C 455.828125 259.738281 459.761719 260.050781 464.308594 258.871094 C 466.359375 258.28125 468.410156 257.699219 470.460938 257.109375 C 470.460938 256.71875 470.460938 256.328125 470.460938 255.941406 C 468.160156 253.578125 466.511719 250.460938 464.011719 248.320312 C 457.441406 242.730469 450.28125 237.148438 442.910156 232.488281 C 438.820312 229.910156 433.761719 228.230469 429.429688 226.039062 C 427.96875 225.300781 425.410156 224.921875 424.449219 223.699219 C 422.171875 220.800781 420.941406 217.109375 419.179688 213.738281 C 415.5 206.660156 411.878906 198.921875 408.628906 191.46875 C 406.398438 186.390625 404.949219 181.371094 402.179688 176.808594 C 388.871094 154.929688 374.539062 141.71875 352.359375 128.738281 C 347.640625 125.980469 341.949219 124.890625 335.941406 123.460938 C 332.710938 123.269531 329.488281 123.070312 326.261719 122.871094 C 324.289062 122.039062 322.25 119.640625 320.390625 118.46875 C 313.039062 113.820312 294.179688 103.71875 288.738281 117 C 285.300781 125.378906 293.878906 133.558594 296.949219 137.808594 C 299.101562 140.789062 301.859375 144.128906 303.398438 147.488281 C 304.410156 149.691406 304.589844 151.898438 305.449219 154.230469 C 307.578125 159.96875 310.949219 166.511719 313.710938 171.820312 C 315.101562 174.511719 316.640625 177.328125 318.398438 179.730469 C 319.480469 181.199219 321.328125 181.851562 321.628906 184.128906 C 319.820312 186.660156 319.71875 190.589844 318.699219 193.808594 C 314.121094 208.261719 315.851562 226.210938 322.511719 236.890625 C 324.550781 240.171875 329.371094 247.210938 335.988281 244.511719 C 341.78125 242.148438 340.488281 234.839844 342.140625 228.390625 C 342.511719 226.929688 342.28125 225.859375 343.019531 224.878906 C 343.019531 224.980469 343.019531 225.070312 343.019531 225.179688 C 344.78125 228.691406 346.53125 232.21875 348.300781 235.730469 C 352.210938 242.019531 359.140625 248.589844 365 253.03125 C 368.039062 255.332031 370.441406 259.308594 374.378906 260.648438 C 374.378906 260.550781 374.378906 260.460938 374.378906 260.351562 C 374.28125 260.351562 374.191406 260.351562 374.078125 260.351562 C 373.320312 259.160156 372.121094 258.671875 371.148438 257.710938 C 368.859375 255.460938 366.300781 252.671875 364.410156 250.089844 C 359.070312 242.839844 354.351562 234.898438 350.050781 226.640625 C 348 222.691406 346.210938 218.351562 344.480469 214.332031 C 343.808594 212.78125 343.820312 210.441406 342.429688 209.640625 C 340.53125 212.582031 337.75 214.960938 336.28125 218.429688 C 333.941406 223.980469 333.628906 230.761719 332.769531 237.769531 C 332.25 237.949219 332.480469 237.832031 332.179688 238.058594 C 328.101562 237.070312 326.660156 232.878906 325.140625 229.269531 C 321.300781 220.148438 320.589844 205.46875 323.96875 194.980469 C 324.839844 192.261719 328.789062 183.710938 327.199219 181.199219 C 326.441406 178.691406 323.921875 177.238281 322.519531 175.332031 C 320.769531 172.96875 319.039062 169.851562 317.828125 167.121094 C 314.691406 160.011719 311.710938 151.738281 308.398438 144.550781 C 306.820312 141.109375 304.148438 137.640625 301.949219 134.589844 C 299.519531 131.210938 296.789062 128.71875 294.910156 124.628906 C 294.238281 123.179688 293.328125 120.851562 294.320312 119.351562 C 294.640625 118.339844 295.078125 117.921875 296.078125 117.589844 C 297.78125 116.269531 302.511719 118.019531 304.289062 118.761719 C 308.988281 120.710938 312.910156 122.570312 316.890625 125.210938 C 318.800781 126.480469 320.730469 128.929688 323.039062 129.609375 C 323.921875 129.609375 324.800781 129.609375 325.679688 129.609375 C 329.808594 130.558594 334.429688 129.910156 338.28125 131.082031 C 345.101562 133.148438 351.199219 136.371094 356.738281 139.871094 C 373.640625 150.539062 387.449219 165.71875 396.898438 183.839844 C 398.421875 186.761719 399.078125 189.539062 400.410156 192.628906 C 403.109375 198.871094 406.519531 205.289062 409.199219 211.390625 C 411.878906 217.480469 414.5 223.621094 418.289062 228.691406 C 420.289062 231.351562 427.988281 232.78125 431.480469 234.261719 C 433.929688 235.300781 437.949219 236.371094 440.269531 237.769531 C 444.710938 240.449219 449.011719 243.640625 453.160156 246.558594 C 455.28125 248.03125 461.671875 251.238281 461.988281 253.890625 Z M 461.988281 253.890625 "/>
<path style=" stroke:none;fill-rule:nonzero;fill:rgb(0%,47.450981%,41.960785%);fill-opacity:1;" d="M 330.980469 142.230469 C 328.828125 142.191406 327.308594 142.460938 325.699219 142.820312 C 325.699219 142.921875 325.699219 143.011719 325.699219 143.121094 C 325.800781 143.121094 325.890625 143.121094 326 143.121094 C 327.03125 145.21875 328.828125 146.589844 330.101562 148.398438 C 331.078125 150.449219 332.050781 152.5 333.03125 154.550781 C 333.128906 154.449219 333.21875 154.359375 333.320312 154.261719 C 335.128906 152.980469 335.96875 150.941406 335.960938 147.808594 C 335.230469 147.039062 335.121094 146.078125 334.488281 145.171875 C 333.648438 143.941406 332.03125 143.25 330.980469 142.230469 Z M 330.980469 142.230469 "/>
</g>
</svg>
